<svg width="20" height="20" viewBox="0 0 20 20" fill="none" xmlns="http://www.w3.org/2000/svg">
<path d="M9.89584 7.7783C9.37807 7.7783 8.95834 7.34302 8.95834 6.80608C8.95834 6.26914 9.37807 5.83386 9.89584 5.83386C10.4136 5.83386 10.8333 6.26914 10.8333 6.80608C10.8333 7.34302 10.4136 7.7783 9.89584 7.7783Z" fill="white"/>
<path d="M15.8333 11.6672H8.33334L10.2083 9.0746L10.8333 9.72275L12.7083 7.13015L15.8333 11.6672Z" fill="white"/>
<path fill-rule="evenodd" clip-rule="evenodd" d="M16.6667 15.0005H6.66667C5.7462 15.0005 5.00001 14.2543 5.00001 13.3339V3.33386C5.00001 2.41338 5.7462 1.66719 6.66667 1.66719H16.6667C17.5871 1.66719 18.3333 2.41338 18.3333 3.33386V13.3339C18.3333 14.2543 17.5871 15.0005 16.6667 15.0005ZM6.66667 3.33386V13.3339H16.6667V3.33386H6.66667Z" fill="white"/>
<path d="M3.33334 6.66719H1.66667V16.6672C1.66667 17.5877 2.41286 18.3339 3.33334 18.3339H13.3333V16.6672H3.33334V6.66719Z" fill="white"/>
</svg>
