<svg width="16" height="17" viewBox="0 0 16 17" fill="none" xmlns="http://www.w3.org/2000/svg">
<path d="M8.66667 14.6749H6.66667V12.6749H8.66667V14.6749ZM8.66667 11.3416H6.66667V11.3369C6.66667 10.2369 6.66667 9.28694 7.11467 8.6216C7.46321 8.17987 7.89689 7.81261 8.39 7.5416C8.61267 7.39894 8.82267 7.2636 8.99933 7.12294C9.77359 6.52365 10.1217 5.52423 9.88733 4.5736C9.51648 3.68704 8.57284 3.18399 7.63006 3.37025C6.68728 3.55651 6.00585 4.38062 6 5.3416H4C4 3.13247 5.79086 1.34159 8 1.34159C9.53684 1.33699 10.9423 2.20757 11.6227 3.5856C12.2338 4.98969 11.9922 6.61922 11 7.7856C10.6983 8.11992 10.3597 8.41894 9.99067 8.67694C9.66772 8.89969 9.37311 9.16095 9.11333 9.45494C8.7462 10.0113 8.58795 10.6797 8.66667 11.3416Z" fill="#2E3A59"/>
</svg>
