<svg width="16" height="17" viewBox="0 0 16 17" fill="none" xmlns="http://www.w3.org/2000/svg">
<path d="M12.6667 14.6749H3.33333C2.59695 14.6749 2 14.078 2 13.3416V4.00827C2 3.27189 2.59695 2.67494 3.33333 2.67494H4.66667V1.34161H6V2.67494H10V1.34161H11.3333V2.67494H12.6667C13.403 2.67494 14 3.27189 14 4.00827V13.3416C14 14.078 13.403 14.6749 12.6667 14.6749ZM3.33333 6.67494V13.3416H12.6667V6.67494H3.33333ZM3.33333 4.00827V5.34161H12.6667V4.00827H3.33333ZM11.3333 12.0083H10V10.6749H11.3333V12.0083ZM8.66667 12.0083H7.33333V10.6749H8.66667V12.0083ZM6 12.0083H4.66667V10.6749H6V12.0083ZM11.3333 9.34161H10V8.00827H11.3333V9.34161ZM8.66667 9.34161H7.33333V8.00827H8.66667V9.34161ZM6 9.34161H4.66667V8.00827H6V9.34161Z" fill="#999999"/>
</svg>
