<svg width="21" height="21" viewBox="0 0 21 21" xmlns="http://www.w3.org/2000/svg">
<path d="M16.6317 16.7992C9.52202 16.8093 4.12619 11.3488 4.1338 4.30131C4.1338 3.84107 4.50689 3.46588 4.96713 3.46588H7.1666C7.57957 3.46588 7.9304 3.76932 7.99104 4.17782C8.13638 5.15688 8.42143 6.11002 8.83753 7.00813L8.92316 7.19297C9.04223 7.44997 8.96152 7.75533 8.73102 7.91994C8.04987 8.40637 7.78956 9.38551 8.3202 10.1495C8.9861 11.1082 9.8255 11.9475 10.784 12.6131C11.548 13.1436 12.527 12.8833 13.0134 12.2023C13.1781 11.9716 13.4836 11.8909 13.7408 12.01L13.9248 12.0952C14.8229 12.5113 15.7762 12.7964 16.7553 12.9417C17.1638 13.0023 17.4671 13.3531 17.4671 13.7661V15.9659C17.4671 16.4261 17.0931 16.7992 16.6329 16.7992L16.6317 16.7992Z"/>
</svg>
