<svg width="64" height="65" viewBox="0 0 64 65" fill="none" xmlns="http://www.w3.org/2000/svg">
<g clip-path="url(#clip0)">
<path d="M58.8404 12.4068V30.2872C58.8404 46.571 47.7823 60.7697 31.9868 64.7681C16.2177 60.7829 5.15961 46.571 5.15961 30.2872V12.4068C17.5769 11.0081 24.6103 6.28394 32 0.768066C39.3897 6.28394 46.4231 11.0081 58.8404 12.4068Z" fill="#FFD15C"/>
<path d="M32 57.7083C20.1105 53.9343 11.9423 42.9025 11.9423 30.2873V18.1734C20.2953 16.3524 26.4313 12.9875 32 9.14746C37.6874 13.093 43.7047 16.392 52.0577 18.1866V30.3004C52.0577 42.9025 43.8895 53.9343 32 57.7083Z" fill="#F8B64C"/>
<path d="M27.5531 43.7075L20.942 37.0964L24.2937 33.7314L27.5531 36.9776L39.7065 24.8374L43.0583 28.1892L27.5531 43.7075Z" fill="white"/>
</g>
<defs>
<clipPath id="clip0">
<rect width="64" height="64" fill="white" transform="translate(0 0.768066)"/>
</clipPath>
</defs>
</svg>
