<svg width="80" height="81" viewBox="0 0 80 81" fill="none" xmlns="http://www.w3.org/2000/svg">
<g clip-path="url(#clip0)">
<path d="M40 3.70264C18.8578 3.70264 1.71875 20.8417 1.71875 41.9839C1.71875 47.2323 2.77594 52.2337 4.6875 56.7878L4.84375 56.7564V54.6401C4.84375 53.4339 5.825 52.4526 7.03125 52.4526H8.86266V51.1489C8.86266 47.6764 11.6878 44.8514 15.1602 44.8514H30.4128C33.8853 44.8514 36.7103 47.6764 36.7103 51.1489V56.8276H75.1562L75.36 56.6714C77.2409 52.1484 78.2812 47.1879 78.2812 41.9839C78.2812 20.8417 61.1422 3.70264 40 3.70264V3.70264Z" fill="#E2E2E2"/>
<path d="M70 26.6714H57.3603C56.5253 27.0939 55.5827 27.3336 54.5845 27.3336H49.7906C48.7925 27.3336 47.8498 27.0939 47.0148 26.6714H40.4688C39.1744 26.6714 38.125 27.7208 38.125 29.0151V29.7406C38.4013 29.6756 38.6886 29.6401 38.9844 29.6401H65.3906C67.4583 29.6401 69.1406 31.3225 69.1406 33.3901V56.8276H72.3438V29.0151C72.3438 27.7208 71.2944 26.6714 70 26.6714V26.6714Z" fill="#ACACAC"/>
<path d="M38.9844 29.4839H42.8125V29.0151C42.8125 27.7208 43.8619 26.6714 45.1562 26.6714H40.4688C39.1744 26.6714 38.125 27.7208 38.125 29.0151V29.58C38.4017 29.5178 38.6889 29.4839 38.9844 29.4839Z" fill="#9C9C9C"/>
<path d="M36.7104 64.0151V79.7964L36.8667 80.1369C37.9001 80.2206 38.9451 80.2651 40.0001 80.2651C52.8709 80.2651 64.2595 73.9117 71.1991 64.1714L71.0939 64.0151H36.7104Z" fill="#FFBD86"/>
<path d="M65.3906 29.4839H38.9844C36.827 29.4839 35.0781 31.2328 35.0781 33.3901V46.9236C36.0919 48.0417 36.7103 49.5245 36.7103 51.149V56.8276H69.2969V33.3901C69.2969 31.2328 67.548 29.4839 65.3906 29.4839V29.4839Z" fill="#706161"/>
<path d="M38.9844 29.4839C36.827 29.4839 35.0781 31.2328 35.0781 33.3901V46.9236C36.0919 48.0417 36.7103 49.5245 36.7103 51.149V56.8276H39.2188V33.3901C39.2188 31.2328 40.9677 29.4839 43.125 29.4839H38.9844Z" fill="#5A4D4D"/>
<path d="M64.1746 36.0465L57.1842 26.7571C56.3935 27.1261 55.5127 27.3336 54.5839 27.3336H49.7902C48.8614 27.3336 47.9807 27.1261 47.1899 26.7571L40.1996 36.0465C39.9763 36.3693 40.0633 36.8127 40.3921 37.0271L44.0252 39.3961L40.6538 41.6427C40.3525 41.8435 40.2618 42.2452 40.4474 42.556L46.3872 52.4958V31.2166C46.3872 30.9385 46.6133 30.7124 46.8914 30.7124H57.4828C57.7608 30.7124 57.9871 30.9385 57.9871 31.2166V52.4958L63.9267 42.5561C64.1124 42.2454 64.0216 41.8436 63.7205 41.6429L60.3491 39.3963L63.9822 37.0272C64.3108 36.8127 64.3978 36.3693 64.1746 36.0465V36.0465Z" fill="#9C8282"/>
<path d="M58.1618 56.8277V31.2165C58.1618 30.8415 57.8579 30.5376 57.4829 30.5376H46.8913C46.5163 30.5376 46.2124 30.8417 46.2124 31.2165V56.8277H58.1618Z" fill="white"/>
<path d="M55.7554 30.1301V27.2207C55.376 27.2938 54.9849 27.3335 54.5844 27.3335H49.7907C49.3902 27.3335 48.9991 27.2938 48.6197 27.2207V30.1301C48.6197 30.3551 48.4374 30.5374 48.2124 30.5374H47.4351L51.8415 37.6429C52.0008 37.8998 52.3746 37.8998 52.5338 37.6429L56.9402 30.5374H56.1629C55.9377 30.5374 55.7554 30.3551 55.7554 30.1301Z" fill="#FFBD86"/>
<path d="M51.4283 30.5374C51.6533 30.5374 51.8357 30.3551 51.8357 30.1301V27.3335H49.7904C49.3899 27.3335 48.9988 27.2938 48.6194 27.2207V30.1301C48.6194 30.3551 48.4371 30.5374 48.2121 30.5374H47.4346L51.841 37.6429C52.0003 37.8998 52.3741 37.8998 52.5333 37.6429L53.7952 35.608L51.0603 31.198C50.8819 30.9099 51.0893 30.5374 51.4283 30.5374V30.5374Z" fill="#F6A96C"/>
<path d="M56.0937 4.86111V10.0378H58.5676C59.7738 10.0378 60.7551 11.0191 60.7551 12.2253V14.4146H62.1692C62.7645 14.4146 63.312 14.6186 63.7498 14.9577V7.70221C63.7498 4.67846 61.2985 2.22705 58.2748 2.22705H55.2251C55.7706 2.96455 56.0937 3.87564 56.0937 4.86111V4.86111Z" fill="#FB8801"/>
<path d="M42.2056 14.4147H43.6197V12.2254C43.6197 11.0192 44.6009 10.0379 45.8072 10.0379H56.25V4.86123C56.25 2.32279 54.1922 0.265137 51.6539 0.265137H45.2211C42.6828 0.265137 40.625 2.32279 40.625 4.86123V14.9578C41.0628 14.6187 41.6103 14.4147 42.2056 14.4147V14.4147Z" fill="#FE9901"/>
<path d="M42.2056 14.4147H43.6197V12.2254C43.6197 11.1897 44.3441 10.3215 45.3123 10.0965V4.86123C45.3125 2.32279 47.3703 0.265137 49.9086 0.265137H45.2211C42.6828 0.265137 40.625 2.32279 40.625 4.86123V14.9578C41.0628 14.6187 41.6103 14.4147 42.2056 14.4147Z" fill="#FB8801"/>
<path d="M43.6203 21.1625V14.2583H42.2063C40.6903 14.2583 39.4614 15.4872 39.4614 17.0031V19.0116C39.4614 20.5275 40.6903 21.7564 42.2063 21.7564H43.6495C43.6306 21.5609 43.6203 21.363 43.6203 21.1625Z" fill="#FFBD86"/>
<path d="M62.1694 14.2583H60.7553V21.1627C60.7553 21.3632 60.7448 21.5611 60.7261 21.7568H62.1694C63.6853 21.7568 64.9142 20.5278 64.9142 19.0119V17.0035C64.9142 15.4872 63.6853 14.2583 62.1694 14.2583V14.2583Z" fill="#FFBD86"/>
<path d="M43.4634 12.2256V21.1629C43.4634 24.6573 46.2962 27.49 49.7904 27.49H54.5842C58.0785 27.49 60.9112 24.6571 60.9112 21.1629V12.2256C60.9112 10.9312 59.8618 9.88184 58.5674 9.88184H45.807C44.5128 9.88184 43.4634 10.9312 43.4634 12.2256V12.2256Z" fill="#FED2A4"/>
<path d="M47.7471 17.2629C47.0999 17.2629 46.5752 16.7384 46.5752 16.0911V14.7061C46.5752 14.0587 47.0999 13.5342 47.7471 13.5342C48.3943 13.5342 48.9189 14.0587 48.9189 14.7061V16.0911C48.9189 16.7384 48.3943 17.2629 47.7471 17.2629Z" fill="#EA9B58"/>
<path d="M56.5073 17.2629C55.8601 17.2629 55.3354 16.7384 55.3354 16.0911V14.7061C55.3354 14.0587 55.8601 13.5342 56.5073 13.5342C57.1545 13.5342 57.6792 14.0587 57.6792 14.7061V16.0911C57.6792 16.7384 57.1545 17.2629 56.5073 17.2629Z" fill="#EA9B58"/>
<path d="M52.4234 24.9346C51.104 24.9346 49.7846 24.4324 48.7803 23.428C48.3226 22.9703 48.3226 22.2283 48.7803 21.7708C49.2379 21.313 49.9799 21.3132 50.4374 21.7707C51.5324 22.8658 53.3143 22.8657 54.4092 21.7707C54.8668 21.3132 55.6089 21.3132 56.0664 21.7707C56.524 22.2285 56.524 22.9703 56.0664 23.428C55.0621 24.4324 53.7428 24.9346 52.4234 24.9346Z" fill="#EA9B58"/>
<path d="M53.082 20.1968H52.1884C51.2959 20.1968 50.5698 19.4707 50.5698 18.5782V16.4932C50.5698 15.8458 51.0945 15.3213 51.7417 15.3213C52.3889 15.3213 52.9136 15.8458 52.9136 16.4932V17.853H53.082C53.7292 17.853 54.2539 18.3775 54.2539 19.0249C54.2539 19.6722 53.7292 20.1968 53.082 20.1968V20.1968Z" fill="#EA9B58"/>
<path d="M61.4191 54.1524C61.4191 54.6377 61.7229 55.0548 62.1491 55.2251C61.7011 55.404 61.3886 55.8551 61.4214 56.3716C61.4319 56.5366 61.4789 56.6902 61.5529 56.8277H66.9527C67.3035 56.4627 67.5202 55.9679 67.5202 55.4216V50.7379C67.5202 49.6162 66.6108 48.7068 65.4891 48.7068H62.611C61.9952 48.7068 61.4602 49.1734 61.4213 49.7879C61.3886 50.3044 61.7011 50.7555 62.1489 50.9344C61.7225 51.1048 61.4189 51.5218 61.4189 52.0071C61.4189 52.4924 61.7227 52.9094 62.1489 53.0798C61.7227 53.2502 61.4191 53.6671 61.4191 54.1524Z" fill="#FED2A4"/>
<path d="M61.4191 54.1524C61.4191 54.6377 61.7229 55.0548 62.1491 55.2251C61.7011 55.404 61.3886 55.8551 61.4214 56.3716C61.4319 56.5366 61.4789 56.6902 61.5529 56.8277H64.1536C63.8025 56.4632 63.5863 55.968 63.5863 55.4216V50.7379C63.5863 49.6379 64.4614 48.7443 65.5532 48.7101C65.5316 48.7094 65.5107 48.7068 65.4891 48.7068H62.611C61.9952 48.7068 61.4602 49.1734 61.4213 49.7879C61.3886 50.3044 61.7011 50.7555 62.1489 50.9344C61.7225 51.1048 61.4189 51.5218 61.4189 52.0071C61.4189 52.4924 61.7227 52.9094 62.1489 53.0798C61.7227 53.2502 61.4191 53.6671 61.4191 54.1524V54.1524Z" fill="#FFBD86"/>
<path d="M36.7104 56.6714V64.1714H71.199C72.8525 61.8506 74.2518 59.3367 75.3603 56.6714H36.7104Z" fill="#F6A96C"/>
<path d="M42.9689 59.4839V56.6714H36.7104V64.1714H71.199C71.9156 63.1654 72.5814 62.1214 73.1995 61.0464H44.5314C43.6684 61.0464 42.9689 60.3469 42.9689 59.4839Z" fill="#EA9B58"/>
<path d="M24.0742 41.5128V43.2758C24.0742 43.7434 24.0047 44.2055 23.8677 44.6489L23.8052 44.8512H28.0628C28.0633 44.8272 28.0647 44.8033 28.0647 44.7792V41.4431C27.7552 41.4886 27.4396 41.513 27.1189 41.513H24.0742V41.5128Z" fill="#FFBD86"/>
<path d="M30.4125 44.6953H15.1598C11.5954 44.6953 8.70605 47.5847 8.70605 51.1491V52.4527H28.7496C29.9559 52.4527 30.9371 53.4339 30.9371 54.6402V79.1805C32.8612 79.6477 34.8407 79.9728 36.8662 80.1369V51.1489C36.8662 47.5847 33.9768 44.6953 30.4125 44.6953V44.6953Z" fill="#8AC9FE"/>
<path d="M15.1557 52.2963V51.1488C15.1557 50.0368 15.4371 48.9904 15.9325 48.077H13.6567C12.3967 48.077 11.2507 47.591 10.3943 46.7971C9.3459 47.9446 8.70605 49.472 8.70605 51.1488V52.2963H15.1557Z" fill="#60B7FF"/>
<path d="M28.1939 10.5388H20.2108C13.9395 10.5388 8.85547 15.6227 8.85547 21.894V43.2759C8.85547 45.9274 11.005 48.0771 13.6567 48.0771H19.4291C22.0806 48.0771 24.2303 45.9276 24.2303 43.2759V41.6692L24.3798 41.4874V35.0224C24.3798 34.6357 24.0592 34.3212 23.6653 34.3212H23.3353C21.9878 34.3212 20.8953 33.2288 20.8953 31.8812V28.687C20.8953 27.3395 21.9877 26.247 23.3353 26.247H23.6583C23.8937 26.2471 24.0808 26.4345 24.0808 26.6643V29.6418C24.0808 29.8101 24.1472 29.9648 24.2678 30.0773C24.3792 30.1812 24.5302 30.2409 24.6822 30.2409C24.8405 30.2409 24.9902 30.1774 25.1039 30.0627L33.1484 21.9354C33.2217 21.8615 33.3027 21.8459 33.3577 21.8459C33.5062 21.8459 33.66 21.958 33.66 22.1457V24.0815C35.5441 23.3224 36.8745 21.4784 36.8745 19.3224V19.2196C36.8745 14.4252 32.9881 10.5388 28.1939 10.5388V10.5388Z" fill="#883F2E"/>
<path d="M13.7495 43.2759V21.894C13.7495 15.6227 18.8334 10.5388 25.1048 10.5388H20.2108C13.9394 10.5388 8.85547 15.6227 8.85547 21.894V43.2759C8.85547 45.9274 11.005 48.0771 13.6567 48.0771H18.5508C15.8991 48.0771 13.7495 45.9276 13.7495 43.2759Z" fill="#6D3326"/>
<path d="M36.4912 33.9587L33.9532 30.4933C33.8593 30.3651 33.8089 30.2104 33.8089 30.0515V22.1458C33.8089 21.745 33.3234 21.5454 33.0415 21.8301L24.9972 29.9572C24.7153 30.242 24.2298 30.0423 24.2298 29.6415V26.664C24.2298 26.3512 23.9764 26.0976 23.6636 26.0973H23.6576H23.3347C21.9104 26.0973 20.7451 27.2626 20.7451 28.6869V31.8811C20.7451 33.3053 21.9104 34.4706 23.3347 34.4706H23.6576H23.6636C23.975 34.4703 24.2298 34.7248 24.2298 35.0362V41.669H27.1182C30.5123 41.669 33.3143 39.1415 33.7487 35.8662C33.7979 35.4951 34.114 35.2181 34.4884 35.2181H35.8526C36.5007 35.2181 36.8742 34.4817 36.4912 33.9587V33.9587Z" fill="#FED2A4"/>
<path d="M30.3867 31.3816C29.7395 31.3816 29.2148 30.8571 29.2148 30.2098V28.7888C29.2148 28.1415 29.7395 27.6169 30.3867 27.6169C31.0339 27.6169 31.5586 28.1415 31.5586 28.7888V30.2098C31.5586 30.8569 31.0339 31.3816 30.3867 31.3816Z" fill="#EA9B58"/>
<path d="M28.75 52.2964H7.03125C5.73687 52.2964 4.6875 53.3458 4.6875 54.6401V56.7878C9.35906 67.9178 19.1389 76.3723 31.0938 79.2212V54.6401C31.0938 53.3458 30.0444 52.2964 28.75 52.2964Z" fill="#9C9C9C"/>
<path d="M10.9375 54.6401C10.9375 53.3458 11.9869 52.2964 13.2812 52.2964H7.03125C5.73687 52.2964 4.6875 53.3458 4.6875 54.6401V56.7878C6.24094 60.489 8.36219 63.8919 10.9375 66.8934V54.6401Z" fill="#838383"/>
</g>
<defs>
<clipPath id="clip0">
<rect width="80" height="80" fill="white" transform="translate(0 0.265137)"/>
</clipPath>
</defs>
</svg>
