<svg width="153" height="153" viewBox="0 0 153 153" fill="none" xmlns="http://www.w3.org/2000/svg">
<g clip-path="url(#clip0)">
<path d="M122.705 145.991H78.3179V30.5652H126.866V127.018L122.705 133.358V145.991Z" fill="#EB8D00"/>
<path d="M85.9936 12.8889H78.3179L71.9771 63.5833L78.3191 144.492L85.9936 143.415V12.8889Z" fill="#FDAE02"/>
<path d="M17.6883 0.197998V12.889H10.4502V143.415L51.3692 148.272L78.3193 144.492V0.197998H17.6883Z" fill="#FDCB02"/>
<path d="M32.6436 30.665H41.56V43.3468H32.6436V30.665Z" fill="#F3FFFB"/>
<path d="M54.8374 30.665H63.7538V43.3468H54.8374V30.665Z" fill="#F3FFFB"/>
<path d="M32.6436 56.0283H41.56V68.71H32.6436V56.0283Z" fill="#F3FFFB"/>
<path d="M54.8374 56.0283H63.7538V68.71H54.8374V56.0283Z" fill="#F3FFFB"/>
<path d="M32.6436 81.3931H41.56V94.0748H32.6436V81.3931Z" fill="#F3FFFB"/>
<path d="M54.8374 81.3931H63.7538V94.0748H54.8374V81.3931Z" fill="#F3FFFB"/>
<path d="M32.6436 106.756H41.56V119.438H32.6436V106.756Z" fill="#F3FFFB"/>
<path d="M54.8374 106.756H63.7538V119.438H54.8374V106.756Z" fill="#F3FFFB"/>
<path d="M97.4404 56.0283H106.357V68.71H97.4404V56.0283Z" fill="#FFD27B"/>
<path d="M97.4404 81.3931H106.357V94.0748H97.4404V81.3931Z" fill="#FFD27B"/>
<path d="M117.976 125.482H126.893V147.676H117.976V125.482Z" fill="#8F4D24"/>
<path d="M122.435 136.084C111.7 136.084 102.965 127.35 102.965 116.614C102.965 105.879 111.7 97.146 122.435 97.146C133.17 97.146 141.903 105.879 141.903 116.614C141.903 127.35 133.17 136.084 122.435 136.084V136.084Z" fill="#A8D32A"/>
<path d="M141.729 143.415H78.3183L75.1484 149.211L78.3183 152.332H141.729V143.415Z" fill="#8D9CA8"/>
<path d="M10.4502 143.415H78.3182V152.332H10.4502V143.415Z" fill="#AAB8C7"/>
</g>
<defs>
<clipPath id="clip0">
<rect width="152.134" height="152.134" fill="white" transform="translate(0.050293 0.197998)"/>
</clipPath>
</defs>
</svg>
