<svg width="33" height="32" viewBox="0 0 33 32" fill="none" xmlns="http://www.w3.org/2000/svg">
<path fill-rule="evenodd" clip-rule="evenodd" d="M30.667 15.3785C30.667 6.20699 27.4362 2 16.667 2C5.89776 2 2.66699 6.20699 2.66699 15.3785C2.66699 21.9055 4.30328 25.9182 9.12853 27.6895V30.7774C9.12853 31.9141 10.5547 32.4332 11.2934 31.5656L13.7834 28.6411C14.6783 28.7185 15.6382 28.7569 16.667 28.7569C27.4362 28.7569 30.667 24.5499 30.667 15.3785ZM14.3782 26.5316C15.0921 26.5882 15.8542 26.6164 16.667 26.6164C25.7794 26.6164 28.5131 23.0825 28.5131 15.3785C28.5131 7.67443 25.7794 4.14055 16.667 4.14055C7.55457 4.14055 4.82084 7.67443 4.82084 15.3785C4.82084 20.8239 6.18665 24.1859 10.2055 25.6891V30.2639C10.2055 30.6627 10.7059 30.8449 10.9651 30.5404L14.3782 26.5316Z" fill="#BFC8D0"/>
<path d="M16.667 25.8548C15.8436 25.8548 15.0717 25.8262 14.3485 25.7685L10.891 29.845C10.6284 30.1546 10.1215 29.9693 10.1215 29.5638V24.9119C6.05054 23.3834 4.66699 19.9647 4.66699 14.4274C4.66699 6.59346 7.43622 3 16.667 3C25.8978 3 28.667 6.59346 28.667 14.4274C28.667 22.2613 25.8978 25.8548 16.667 25.8548Z" fill="#9179EE"/>
<path fill-rule="evenodd" clip-rule="evenodd" d="M30.667 14.3785C30.667 5.20699 27.4362 1 16.667 1C5.89776 1 2.66699 5.20699 2.66699 14.3785C2.66699 20.9055 4.30328 24.9182 9.12853 26.6895V29.7774C9.12853 30.9141 10.5547 31.4332 11.2934 30.5656L13.7834 27.6411C14.6783 27.7185 15.6382 27.7569 16.667 27.7569C27.4362 27.7569 30.667 23.5499 30.667 14.3785ZM14.3782 25.5316C15.0921 25.5882 15.8542 25.6164 16.667 25.6164C25.7794 25.6164 28.5131 22.0825 28.5131 14.3785C28.5131 6.67443 25.7794 3.14055 16.667 3.14055C7.55457 3.14055 4.82084 6.67443 4.82084 14.3785C4.82084 19.8239 6.18665 23.1859 10.2055 24.6891V29.2639C10.2055 29.6627 10.7059 29.8449 10.9651 29.5404L14.3782 25.5316Z" fill="white"/>
<path d="M12.2102 12.1345L12.1696 12.157L12.1337 12.1866C11.8572 12.4154 11.4426 13.0434 11.8057 13.8197C12.1084 14.4665 12.7827 15.7874 13.9675 16.7826C15.1262 17.756 16.3635 18.2795 17.1762 18.4509L17.2273 18.4617H17.2738C17.2761 18.4619 17.281 18.4624 17.2889 18.4636C17.3082 18.4663 17.3315 18.4703 17.3682 18.4767L17.4544 17.9842L17.3682 18.4767C17.3745 18.4778 17.381 18.479 17.3878 18.4802C17.6379 18.5244 18.2374 18.6304 18.7398 18.1297C19.0624 17.8083 19.3568 17.4732 19.4835 17.3225C19.5725 17.2413 19.8626 17.0731 20.2296 17.1972C20.9245 17.4321 21.7509 17.9621 22.1502 18.2308C22.4595 18.439 23.1594 18.9404 23.4749 19.1682L23.4752 19.1684C23.5014 19.1873 23.5629 19.2493 23.5961 19.3354C23.6227 19.4042 23.637 19.4988 23.5731 19.6357C23.4545 19.8895 23.0936 20.374 22.6048 20.7978C22.1071 21.2294 21.5892 21.5 21.1742 21.5C21.1757 21.5 21.1742 21.4998 21.1695 21.4992C21.151 21.4967 21.0823 21.4874 20.9462 21.4568C20.7932 21.4225 20.5865 21.3686 20.3339 21.2926C19.8292 21.1407 19.152 20.904 18.3699 20.5675C16.8045 19.8941 14.8338 18.8277 12.9888 17.2572C11.8283 16.2694 10.7334 14.9036 9.88079 13.6251C9.02107 12.3358 8.44595 11.1932 8.28943 10.6655L8.27847 10.6285L8.26199 10.5937C8.22303 10.5114 8.16811 10.3355 8.16701 10.136C8.16594 9.94333 8.21424 9.75923 8.34164 9.60657C8.76166 9.10322 9.20637 8.60859 10.1875 8.13395C10.2789 8.08974 10.422 8.05076 10.5627 8.04849C10.707 8.04617 10.7822 8.082 10.8122 8.10835C11.1876 8.43751 11.7695 9.01857 12.1615 9.51513C12.3641 9.77164 12.6088 10.0975 12.8128 10.3806C12.9148 10.5222 13.0047 10.6506 13.0732 10.7527C13.1075 10.8039 13.1349 10.8462 13.155 10.8788C13.1688 10.9012 13.1763 10.9143 13.1794 10.9199C13.1811 10.9256 13.1888 10.9498 13.1955 10.9939C13.2041 11.0494 13.2081 11.1177 13.2024 11.1891C13.1905 11.3351 13.1425 11.4524 13.0561 11.5315C12.7632 11.7998 12.366 12.0482 12.2102 12.1345ZM16.9436 6.51613C16.9439 6.51585 16.9442 6.51557 16.9445 6.51527C16.9517 6.50852 16.9664 6.5 16.9896 6.5C20.9815 6.5 24.1654 9.53785 24.167 13.223C24.1663 13.2239 24.1653 13.2251 24.1637 13.2267C24.1565 13.2334 24.1417 13.2419 24.1186 13.2419C24.0955 13.2419 24.0807 13.2334 24.0735 13.2267C24.0719 13.2251 24.0709 13.2239 24.0702 13.223C24.0686 9.49946 20.8702 6.53226 16.9896 6.53226C16.9664 6.53226 16.9517 6.52374 16.9445 6.51699C16.9442 6.51669 16.9439 6.5164 16.9436 6.51613ZM16.9445 10.646C16.9442 10.6457 16.9439 10.6454 16.9436 10.6452C16.9439 10.6449 16.9442 10.6446 16.9445 10.6443C16.9517 10.6376 16.9664 10.629 16.9896 10.629C18.5586 10.629 19.7783 11.8182 19.7799 13.223C19.7793 13.2239 19.7782 13.2251 19.7766 13.2267C19.7694 13.2334 19.7546 13.2419 19.7315 13.2419C19.7084 13.2419 19.6936 13.2334 19.6864 13.2267C19.6848 13.2251 19.6838 13.2239 19.6831 13.223C19.6815 11.7799 18.4473 10.6613 16.9896 10.6613C16.9664 10.6613 16.9517 10.6528 16.9445 10.646ZM16.9445 8.5815C16.9442 8.58121 16.9439 8.58092 16.9436 8.58065C16.9439 8.58037 16.9442 8.58008 16.9445 8.57979C16.9517 8.57304 16.9664 8.56452 16.9896 8.56452C19.7701 8.56452 21.9718 10.678 21.9734 13.223C21.9728 13.2239 21.9718 13.2251 21.9701 13.2267C21.963 13.2334 21.9482 13.2419 21.9251 13.2419C21.9019 13.2419 21.8871 13.2334 21.88 13.2267C21.8784 13.2251 21.8773 13.2239 21.8767 13.223C21.8751 10.6397 19.6587 8.59677 16.9896 8.59677C16.9664 8.59677 16.9517 8.58825 16.9445 8.5815Z" fill="white" stroke="white" stroke-linecap="round"/>
</svg>
