<svg width="32" height="33" viewBox="0 0 32 33" fill="none" xmlns="http://www.w3.org/2000/svg">
<path fill-rule="evenodd" clip-rule="evenodd" d="M2 16.9985C2 9.26655 8.26801 2.99854 16 2.99854C23.732 2.99854 30 9.26655 30 16.9985C30 24.7305 23.732 30.9985 16 30.9985C8.26801 30.9985 2 24.7305 2 16.9985Z" fill="#EE8208"/>
<path d="M20.4442 13.1276C20.4442 15.4038 18.4464 17.2554 15.9887 17.2554C13.5315 17.2554 11.5332 15.4038 11.5332 13.1276C11.5332 10.8506 13.5315 8.99854 15.9887 8.99854C18.4464 8.99854 20.4442 10.8506 20.4442 13.1276ZM17.8335 13.1276C17.8335 12.1849 17.006 11.4183 15.9887 11.4183C14.9722 11.4183 14.1439 12.1849 14.1439 13.1276C14.1439 14.0695 14.9722 14.8366 15.9887 14.8366C17.006 14.8366 17.8335 14.0695 17.8335 13.1276Z" fill="white"/>
<path d="M17.8028 20.6254C18.7097 20.4339 19.5844 20.1014 20.39 19.6325C20.9997 19.2763 21.1834 18.5295 20.7992 17.9645C20.4153 17.3983 19.61 17.2278 18.9992 17.5841C17.1741 18.6476 14.8244 18.6473 13.0004 17.5841C12.3897 17.2278 11.584 17.3983 11.2009 17.9645C10.8168 18.53 10.9999 19.2763 11.6096 19.6325C12.4153 20.1009 13.2899 20.4339 14.1969 20.6254L11.7059 22.9338C11.1967 23.4061 11.1967 24.1719 11.7064 24.6443C11.9615 24.8802 12.2953 24.9983 12.6291 24.9983C12.9634 24.9983 13.2977 24.8802 13.5528 24.6443L15.9995 22.3759L18.4484 24.6443C18.9576 25.1166 19.7838 25.1166 20.2935 24.6443C20.8037 24.1719 20.8037 23.4056 20.2935 22.9338L17.8028 20.6254Z" fill="white"/>
</svg>
