<svg width="81" height="81" viewBox="0 0 81 81" fill="none" xmlns="http://www.w3.org/2000/svg">
<g clip-path="url(#clip0)">
<path d="M53.324 77.31V9.80232C53.324 8.17014 52.0008 6.84717 50.3686 6.84717H9.09676C7.46457 6.84717 6.1416 8.17029 6.1416 9.80232V77.31C6.1416 78.9422 7.46473 80.2651 9.09676 80.2651H50.3688C52.0008 80.2651 53.324 78.942 53.324 77.31V77.31Z" fill="#FFC250"/>
<path d="M60.0579 6.84692H50.1675C51.7997 6.84692 53.1228 8.17005 53.1228 9.80208V77.3097C53.1228 78.9419 51.7997 80.2649 50.1675 80.2649H60.0579C61.6901 80.2649 63.0133 78.9418 63.0133 77.3097V9.80224C63.0133 8.17005 61.6901 6.84692 60.0579 6.84692V6.84692Z" fill="#EAB14D"/>
<path d="M10.9717 74.3785V12.7335C10.9717 12.1501 11.4446 11.6772 12.0279 11.6772H57.1267C57.7101 11.6772 58.1829 12.1502 58.1829 12.7335V74.3785C58.1829 74.9619 57.71 75.4347 57.1267 75.4347H12.0279C11.4445 75.4347 10.9717 74.9619 10.9717 74.3785V74.3785Z" fill="#F5F5F5"/>
<path d="M57.1268 11.6772H47.2363C47.8198 11.6772 48.2926 12.1502 48.2926 12.7335V74.3785C48.2926 74.9619 47.8196 75.4347 47.2363 75.4347H57.1268C57.7102 75.4347 58.183 74.9618 58.183 74.3785V12.7335C58.183 12.1502 57.7102 11.6772 57.1268 11.6772Z" fill="#EAEAEA"/>
<path d="M40.8552 3.94295V2.38717C40.8552 1.21529 39.9052 0.265137 38.7332 0.265137H30.4211C29.2491 0.265137 28.2991 1.21529 28.2991 2.38717V3.94295C28.2991 4.42217 27.9105 4.81076 27.4313 4.81076H23.9719C22.8212 4.81076 21.8882 5.74373 21.8882 6.89451V11.6773H47.2661V6.89451C47.2661 5.74373 46.3332 4.81076 45.1824 4.81076H41.723C41.2438 4.81076 40.8552 4.42217 40.8552 3.94295V3.94295Z" fill="#C2D0DA"/>
<path d="M17.1157 28.8263V19.5235C17.1157 18.4929 17.9513 17.6572 18.982 17.6572H28.2848C29.3154 17.6572 30.151 18.4929 30.151 19.5235V28.8263C30.151 29.8569 29.3154 30.6925 28.2848 30.6925H18.982C17.9512 30.6925 17.1157 29.8569 17.1157 28.8263V28.8263Z" fill="#66B49D"/>
<path d="M17.1157 48.2076V38.9048C17.1157 37.8742 17.9513 37.0386 18.982 37.0386H28.2848C29.3154 37.0386 30.151 37.8742 30.151 38.9048V48.2076C30.151 49.2383 29.3154 50.0739 28.2848 50.0739H18.982C17.9512 50.0739 17.1157 49.2383 17.1157 48.2076V48.2076Z" fill="#66B49D"/>
<path d="M17.1157 67.5887V58.2859C17.1157 57.2553 17.9513 56.4197 18.982 56.4197H28.2848C29.3154 56.4197 30.151 57.2553 30.151 58.2859V67.5887C30.151 68.6194 29.3154 69.455 28.2848 69.455H18.982C17.9512 69.455 17.1157 68.6195 17.1157 67.5887V67.5887Z" fill="#66B49D"/>
<path d="M22.8462 27.5063C22.8448 27.5063 22.8435 27.5063 22.8421 27.5063C22.3091 27.5051 21.8037 27.247 21.4898 26.8162L20.0801 24.8803C19.6876 24.3412 19.8063 23.586 20.3454 23.1935C20.8844 22.8012 21.6396 22.92 22.0319 23.4589L22.8493 24.5815L25.2391 21.3346C25.6344 20.7976 26.3901 20.6829 26.9269 21.0781C27.464 21.4732 27.5788 22.229 27.1835 22.766L24.1973 26.8231C23.8824 27.251 23.3774 27.5063 22.8462 27.5063V27.5063Z" fill="#F6F9F9"/>
<path d="M22.846 47.3093C22.8444 47.3093 22.843 47.3093 22.8416 47.3093C22.3087 47.3079 21.8032 47.0499 21.4894 46.6188L20.0801 44.6832C19.6876 44.1441 19.8063 43.389 20.3454 42.9965C20.8844 42.6041 21.6396 42.7229 22.0319 43.2618L22.8493 44.3845L25.2391 41.1376C25.6344 40.6007 26.3901 40.4859 26.9269 40.881C27.464 41.2762 27.5788 42.032 27.1835 42.569L24.1973 46.626C23.8824 47.0543 23.3774 47.3093 22.846 47.3093Z" fill="#F6F9F9"/>
<path d="M22.8455 66.269C22.844 66.269 22.8426 66.269 22.8414 66.2689C22.3086 66.2676 21.803 66.0097 21.4892 65.579L20.0795 63.6428C19.687 63.1037 19.8059 62.3487 20.345 61.9562C20.8844 61.5637 21.6392 61.6828 22.0315 62.2217L22.8487 63.3442L25.2387 60.0973C25.634 59.5604 26.3897 59.4456 26.9265 59.8407C27.4636 60.2359 27.5784 60.9917 27.1831 61.5287L24.1969 65.5857C23.8817 66.0137 23.3769 66.269 22.8455 66.269V66.269Z" fill="#F6F9F9"/>
<path d="M51.087 22.8597H36.1628C35.496 22.8597 34.9556 22.3192 34.9556 21.6525C34.9556 20.9858 35.496 20.4453 36.1628 20.4453H51.087C51.7537 20.4453 52.2942 20.9858 52.2942 21.6525C52.2942 22.3192 51.7537 22.8597 51.087 22.8597Z" fill="#DDEAFB"/>
<path d="M43.6248 27.9046H36.1628C35.496 27.9046 34.9556 27.3641 34.9556 26.6974C34.9556 26.0307 35.496 25.4902 36.1628 25.4902H43.6248C44.2915 25.4902 44.832 26.0307 44.832 26.6974C44.832 27.3641 44.2915 27.9046 43.6248 27.9046Z" fill="#DDEAFB"/>
<path d="M46.1767 42.241H36.1632C35.4965 42.241 34.9561 41.7006 34.9561 41.0339C34.9561 40.3671 35.4965 39.8267 36.1632 39.8267H46.1767C46.8434 39.8267 47.3839 40.3671 47.3839 41.0339C47.3839 41.7006 46.8434 42.241 46.1767 42.241Z" fill="#DDEAFB"/>
<path d="M43.6253 47.286H36.1632C35.4965 47.286 34.9561 46.7455 34.9561 46.0788C34.9561 45.412 35.4965 44.8716 36.1632 44.8716H43.6253C44.292 44.8716 44.8325 45.412 44.8325 46.0788C44.8325 46.7455 44.292 47.286 43.6253 47.286Z" fill="#DDEAFB"/>
<path d="M70.4964 31.7835L69.3111 30.222L64.876 27.4134L63.1711 27.1448L40.461 63.0312C39.913 63.8965 39.511 64.846 39.271 65.8417C42.0341 65.8759 44.5421 67.464 45.7544 69.9473C46.5519 69.3046 47.2383 68.5352 47.7863 67.6699L70.4964 31.7835Z" fill="#FC8086"/>
<path d="M73.7027 20.7326L71.7863 19.5191C70.2924 18.573 68.3143 19.0175 67.3687 20.5117L65.6113 23.2887L66.172 24.4189L71.5048 27.7959L72.9368 27.9275L74.6952 25.1487C75.6402 23.6553 75.196 21.6783 73.7027 20.7326V20.7326Z" fill="#8C9BA6"/>
<path d="M63.1733 27.1345L65.6147 23.2785L72.9413 27.9173L70.5 31.7733L63.1733 27.1345Z" fill="#C9E2E7"/>
<path d="M45.7542 69.9474L39.2878 75.1584C38.3756 75.8935 37.0503 75.0543 37.3248 73.9154L39.2707 65.8418C42.0339 65.8759 44.542 67.4641 45.7542 69.9474V69.9474Z" fill="#7C8B96"/>
<path d="M44.0584 67.7104L67.8645 30.1169L65.8247 28.8252L42.0186 66.4186C42.7654 66.7333 43.4545 67.1697 44.0584 67.7104V67.7104Z" fill="#FB636F"/>
</g>
<defs>
<clipPath id="clip0">
<rect width="80" height="80" fill="white" transform="translate(0.666504 0.265137)"/>
</clipPath>
</defs>
</svg>
