<svg width="32" height="33" viewBox="0 0 32 33" fill="none" xmlns="http://www.w3.org/2000/svg">
<rect x="2" y="2.99854" width="28" height="28" rx="6" fill="#2789F6"/>
<path d="M22.9233 19.3326C22.7079 19.0403 22.6596 18.7444 22.7774 18.4447C23.0711 17.6448 27.3494 12.5647 25.5671 12.5647C24.3424 12.5809 22.8696 12.5647 21.6954 12.5647C21.4775 12.6177 21.3364 12.7321 21.2482 12.9648C20.5616 14.548 19.7214 16.48 18.4901 17.7217C18.3281 17.8523 18.2271 17.8467 18.0425 17.7984C17.1788 16.8891 18.0998 13.7736 17.5745 12.5426C17.471 12.3016 17.2444 12.1928 17.0125 12.1315C15.8399 11.852 13.1617 12.0184 12.7247 12.5809C12.5998 12.7418 12.5824 12.8295 12.6725 12.844C13.0889 12.9096 13.3836 13.0668 13.5571 13.3152C13.8844 14.0359 14.1256 17.8749 13.1617 17.8749C12.1978 17.8749 10.6435 14.1073 10.2165 13.0629C10.1029 12.7484 9.81365 12.5681 9.50887 12.5149L6.65729 12.5367C6.15606 12.5367 5.87592 12.784 6.05358 13.2821C7.53881 16.9688 10.789 24.1149 15.7739 23.936C16.2733 23.936 17.1324 24.1277 17.5224 23.6948C18.0584 22.9838 17.4047 21.7174 18.3237 21.2344C18.5555 21.1111 18.7958 21.2145 18.9949 21.3661C20.0172 22.1445 20.5599 23.5108 21.8206 23.9255C22.0422 23.9985 22.2365 24.0168 22.4032 23.9803L25.0674 23.9365C25.562 23.9365 26.0492 23.7165 25.9469 23.1251C25.5585 21.857 24.0108 20.5535 22.9233 19.3326Z" fill="white"/>
</svg>
