<svg width="81" height="81" viewBox="0 0 81 81" fill="none" xmlns="http://www.w3.org/2000/svg">
<path d="M72.1711 41.1511L64.7067 38.8619L62.4089 46.354L61.1253 42.867C60.1053 40.0959 57.8393 37.9675 55.0101 37.1225L47.6403 34.9214H40.3643H33.0884L25.7184 37.1225C22.889 37.9675 20.6232 40.0961 19.6032 42.867L18.3196 46.354L16.0218 38.8619L8.55762 41.1511L13.8604 58.4417L13.8718 58.4383L13.8682 58.4479L13.9676 58.9323C14.8982 63.4697 21.1448 64.052 22.8982 59.765L25.9895 52.2069V77.014H54.7395V52.2069L57.8306 59.765C59.584 64.052 65.8306 63.4697 66.7612 58.9323L66.8606 58.4479L66.857 58.4383L66.8684 58.4417L72.1711 41.1511Z" fill="#6E83B7"/>
<path d="M65.3677 30.6969C65.328 30.1766 65.6916 29.7118 66.2061 29.625C66.77 29.53 67.3002 29.9222 67.3743 30.4894C67.3743 30.4894 67.4732 31.5874 67.5433 32.3324C67.5477 32.378 67.5557 32.4227 67.5654 32.4668C67.6314 32.7688 67.8197 33.0294 68.0857 33.1888L65.7052 34.8871L65.5297 32.8161L65.3677 30.6969Z" fill="#FFD3B3"/>
<path d="M58.1768 13.7173H70.6768V30.9048H58.1768V13.7173Z" fill="#EDEFF1"/>
<path d="M59.1143 15.436H69.7393V16.3735H59.1143V15.436Z" fill="#D3D3D3"/>
<path d="M59.1143 17.7798H69.7393V18.7173H59.1143V17.7798Z" fill="#D3D3D3"/>
<path d="M59.1143 20.1235H69.7393V21.061H59.1143V20.1235Z" fill="#D3D3D3"/>
<path d="M59.1143 22.4673H69.7393V23.4048H59.1143V22.4673Z" fill="#D3D3D3"/>
<path d="M59.1143 24.811H69.7393V25.7485H59.1143V24.811Z" fill="#D3D3D3"/>
<path d="M65.9852 36.3178V36.3175C65.7795 36.1022 65.7584 35.8333 65.738 35.5662L65.6934 34.8892L68.0801 33.19C68.1262 33.2175 68.1768 33.2425 68.2273 33.2636L68.2432 33.2694C68.5648 33.4039 68.9323 33.3747 69.2285 33.1909L70.2448 32.5608C70.6304 32.3191 70.8331 31.8692 70.7584 31.4203L70.0745 29.0409L69.3604 28.9872L69.1921 29.3659C68.9999 29.7986 68.5077 30.0111 68.0612 29.8545C67.5726 29.6833 67.3257 29.1391 67.5185 28.6584L67.7879 27.9875C68.0065 27.4431 68.5434 27.0947 69.1295 27.1167L70.6063 27.1723C71.1618 27.1933 71.6512 27.5431 71.8509 28.0619L72.1579 28.8598L72.8449 30.9022L74.7235 32.5716C75.0912 32.8983 75.2346 33.4091 75.0909 33.8794L73.8234 38.0247C73.6754 38.5084 73.3509 38.9187 72.914 39.1739L72.0967 39.6512C71.8237 39.8108 71.6207 40.0672 71.5282 40.3695L71.3649 40.9036L65.721 39.1726L66.1704 37.6703C66.3099 37.2142 66.2237 36.7234 65.9852 36.3178V36.3178Z" fill="#FFD3B3"/>
<path d="M71.1426 36.6137L69.2168 34.9854C68.741 34.5829 68.5423 33.9498 68.688 33.3506C68.8768 33.3456 69.0635 33.2929 69.2283 33.1907L70.2446 32.5606C70.6302 32.3189 70.8329 31.869 70.7582 31.4201L70.5002 30.5225H72.7173L72.8449 30.9018L74.7235 32.5712C75.0912 32.8979 75.2346 33.4087 75.0908 33.879L74.799 34.8337L73.8807 35.0637C73.7869 35.0857 73.7169 35.1585 73.6888 35.2506L73.4052 36.1784C73.2626 36.645 72.8677 36.9753 72.3799 36.9875L72.2379 37.0004C72.0607 37.0045 71.8868 36.9803 71.7191 36.929C71.5055 36.8642 71.3123 36.7578 71.1426 36.6137V36.6137Z" fill="#FCB98B"/>
<path d="M75.0905 33.8797L74.9106 34.4679L73.8565 34.7158C73.6317 34.7688 73.452 34.9371 73.3845 35.1579L73.1008 36.0857C73.0058 36.3961 72.7228 36.6111 72.3983 36.6193L72.2275 36.6235C71.9189 36.6304 71.6195 36.5257 71.3847 36.3263L69.4562 34.6977C69.0717 34.3724 68.9182 33.8507 69.0653 33.3696L69.5448 31.8013C69.6967 31.3046 70.1378 30.9543 70.6481 30.9157C70.6795 30.9121 70.71 30.911 70.7415 30.9113L72.8445 30.9021L74.7234 32.5721C75.0909 32.8976 75.2342 33.4094 75.0905 33.8797V33.8797Z" fill="#FFD3B3"/>
<path d="M69.9458 35.1631L69.4976 35.0261L70.3358 32.2844C70.4569 31.8881 70.8163 31.6075 71.2302 31.5859L72.1724 31.5369L72.1968 32.005L71.2546 32.0541C71.0368 32.0655 70.8477 32.213 70.7841 32.4214L69.9458 35.1631Z" fill="#FCB98B"/>
<path d="M71.2881 36.3627L70.8398 36.2257L71.6595 33.5447C71.7698 33.1841 72.0692 32.9213 72.4409 32.8586L73.0903 32.7493L73.1681 33.2115L72.5187 33.3208C72.3233 33.3538 72.1658 33.4921 72.1078 33.6818L71.2881 36.3627Z" fill="#FCB98B"/>
<path d="M67.8252 39.8506L68.3031 38.2859L68.7513 38.4228L68.2733 39.9875L67.8252 39.8506Z" fill="#FCB98B"/>
<path d="M71.0054 14.2166L73.8632 11.3587L74.7468 12.2424L71.889 15.1002L71.0054 14.2166Z" fill="#6E83B7"/>
<path d="M75.0518 14.0298H73.8018V12.311H72.083V11.061H75.0518V14.0298Z" fill="#6E83B7"/>
<path d="M71.0068 22.915L71.8906 22.0313L74.7484 24.8891L73.8647 25.7729L71.0068 22.915Z" fill="#6E83B7"/>
<path d="M75.0518 26.061H72.083V24.811H73.8018V23.0923H75.0518V26.061Z" fill="#6E83B7"/>
<path d="M54.0894 12.2432L54.973 11.3595L57.8308 14.2173L56.9472 15.101L54.0894 12.2432Z" fill="#6E83B7"/>
<path d="M55.0518 14.0298H53.8018V11.061H56.7705V12.311H55.0518V14.0298Z" fill="#6E83B7"/>
<path d="M54.0859 24.8833L56.9438 22.0255L57.8275 22.9092L54.9697 25.767L54.0859 24.8833Z" fill="#6E83B7"/>
<path d="M56.7705 26.061H53.8018V23.0923H55.0518V24.811H56.7705V26.061Z" fill="#6E83B7"/>
<path d="M47.6407 34.9214H40.3648H33.0888L28.3926 36.3239C29.2734 41.3939 34.2977 45.2798 40.3646 45.2798C46.4315 45.2798 51.4559 41.3939 52.3366 36.3239L47.6407 34.9214Z" fill="#EDEFF1"/>
<path d="M15.3615 30.6969C15.4012 30.1766 15.0376 29.7118 14.5231 29.625C13.9592 29.53 13.429 29.9222 13.355 30.4894C13.355 30.4894 13.2561 31.5874 13.1859 32.3324C13.1815 32.378 13.1736 32.4227 13.1639 32.4668C13.0978 32.7688 12.9095 33.0294 12.6436 33.1888L15.024 34.8871L15.1995 32.8161L15.3615 30.6969Z" fill="#FFD3B3"/>
<path d="M10.0518 13.7173H22.5518V30.9048H10.0518V13.7173Z" fill="#EDEFF1"/>
<path d="M10.9893 15.436H21.6143V16.3735H10.9893V15.436Z" fill="#D3D3D3"/>
<path d="M10.9893 17.7798H21.6143V18.7173H10.9893V17.7798Z" fill="#D3D3D3"/>
<path d="M10.9893 20.1235H21.6143V21.061H10.9893V20.1235Z" fill="#D3D3D3"/>
<path d="M10.9893 22.4673H21.6143V23.4048H10.9893V22.4673Z" fill="#D3D3D3"/>
<path d="M10.9893 24.811H21.6143V25.7485H10.9893V24.811Z" fill="#D3D3D3"/>
<path d="M14.7446 36.3178V36.3175C14.9504 36.1022 14.9715 35.8333 14.9918 35.5662L15.0365 34.8892L12.6498 33.19C12.6037 33.2175 12.553 33.2425 12.5026 33.2636L12.4866 33.2694C12.1651 33.4039 11.7976 33.3747 11.5013 33.1909L10.4851 32.5608C10.0994 32.3191 9.89679 31.8692 9.97148 31.4203L10.6554 29.0409L11.3694 28.9872L11.5377 29.3659C11.7299 29.7986 12.2221 30.0111 12.6687 29.8545C13.1573 29.6833 13.4041 29.1391 13.2113 28.6584L12.9419 27.9875C12.7234 27.4431 12.1865 27.0947 11.6004 27.1167L10.1235 27.1723C9.56804 27.1933 9.07867 27.5431 8.87898 28.0619L8.57195 28.8598L7.88492 30.9022L6.00632 32.5716C5.63867 32.8983 5.49523 33.4091 5.63898 33.8794L6.90648 38.0247C7.05445 38.5084 7.37898 38.9187 7.81585 39.1739L8.6332 39.6512C8.90617 39.8108 9.10914 40.0672 9.20164 40.3695L9.36492 40.9036L15.0088 39.1726L14.5594 37.6703C14.4199 37.2142 14.5062 36.7234 14.7446 36.3178Z" fill="#FFD3B3"/>
<path d="M9.58726 36.6137L11.513 34.9854C11.9888 34.5829 12.1876 33.9498 12.0418 33.3506C11.853 33.3456 11.6663 33.2929 11.5015 33.1907L10.4852 32.5606C10.0996 32.3189 9.89694 31.869 9.97163 31.4201L10.2296 30.5225H8.01257L7.88491 30.9018L6.00632 32.5712C5.63867 32.8979 5.49523 33.4087 5.63898 33.879L5.93085 34.8337L6.84913 35.0637C6.94288 35.0857 7.01288 35.1585 7.04101 35.2506L7.3246 36.1784C7.46726 36.645 7.8621 36.9753 8.34991 36.9875L8.49194 37.0004C8.66913 37.0045 8.84304 36.9803 9.01069 36.929C9.22429 36.8642 9.41757 36.7578 9.58726 36.6137V36.6137Z" fill="#FCB98B"/>
<path d="M5.63901 33.8797L5.81885 34.4679L6.87292 34.7158C7.09776 34.7688 7.27745 34.9371 7.34495 35.1579L7.6287 36.0857C7.7237 36.3961 8.00667 36.6111 8.3312 36.6193L8.50198 36.6235C8.81057 36.6304 9.10995 36.5257 9.34479 36.3263L11.2732 34.6977C11.6578 34.3724 11.8112 33.8507 11.6642 33.3696L11.1846 31.8013C11.0328 31.3046 10.5917 30.9543 10.0814 30.9157C10.05 30.9121 10.0195 30.911 9.98792 30.9113L7.88495 30.9021L6.00604 32.5721C5.63854 32.8976 5.49526 33.4094 5.63901 33.8797V33.8797Z" fill="#FFD3B3"/>
<path d="M10.7837 35.1633L9.94537 32.4214C9.88178 32.213 9.69272 32.0653 9.4749 32.0541L8.53271 32.005L8.55709 31.5369L9.49928 31.5859C9.91303 31.6075 10.2724 31.8881 10.3937 32.2844L11.2319 35.0261L10.7837 35.1633Z" fill="#FCB98B"/>
<path d="M9.44103 36.3627L8.62135 33.6818C8.56354 33.4921 8.40603 33.3538 8.21041 33.3208L7.56104 33.2115L7.63885 32.7493L8.28822 32.8586C8.6601 32.9213 8.95947 33.1841 9.06963 33.5447L9.88932 36.2257L9.44103 36.3627Z" fill="#FCB98B"/>
<path d="M11.9214 38.4106L12.3695 38.2738L12.8432 39.8246L12.3951 39.9614L11.9214 38.4106Z" fill="#FCB98B"/>
<path d="M18.3203 46.3549L21.4277 56.476L21.433 53.7796C21.4336 53.467 21.3873 53.156 21.2956 52.8571L18.8555 44.9009L18.3203 46.3549Z" fill="#466089"/>
<path d="M62.4096 46.3549L59.3022 56.476L59.2969 53.7796C59.2963 53.467 59.3425 53.156 59.4342 52.8571L61.8744 44.9009L62.4096 46.3549Z" fill="#466089"/>
<path d="M25.9893 77.0142V79.4985H40.3643H54.7393V77.0142H40.3643H25.9893Z" fill="#466089"/>
<path d="M38.6826 77.0142H42.047V79.4985H38.6826V77.0142Z" fill="#FFE352"/>
<path d="M47.6402 34.9214L43.7361 40.7776L43.2033 40.0557L42.5127 40.9123L43.7797 42.6317L48.6786 35.2304L47.6402 34.9214Z" fill="#D3D3D3"/>
<path d="M33.0892 34.9214L36.9933 40.7776L37.5197 40.062L38.178 40.9646L36.9497 42.6317L32.0508 35.2304L33.0892 34.9214Z" fill="#D3D3D3"/>
<path d="M38.7954 45.1905C39.3092 45.2485 39.8326 45.28 40.3645 45.28C40.8421 45.28 41.3124 45.2533 41.7755 45.2064L41.6066 42.02H38.9448L38.7954 45.1905Z" fill="#80D6FB"/>
<path d="M41.2306 43.262H40.9181C40.9181 42.1426 40.3191 41.8173 40.2935 41.8041L40.4344 41.5251C40.4669 41.5414 41.2306 41.9384 41.2306 43.262V43.262Z" fill="#46BEE8"/>
<path d="M39.8106 43.262H39.498C39.498 41.9384 40.2618 41.5414 40.2943 41.5251L40.4353 41.8041C40.4096 41.8173 39.8106 42.1428 39.8106 43.262V43.262Z" fill="#46BEE8"/>
<path d="M36.1061 32.7917L33.0894 34.9213L36.9934 40.7775L38.9495 38.1228C39.2948 37.6542 39.7642 37.2913 40.3047 37.075L40.3652 37.0508L36.1061 32.7917Z" fill="#EDEFF1"/>
<path d="M44.6237 32.7917L47.6405 34.9213L43.7365 40.7775L41.7804 38.1228C41.4351 37.6542 40.9657 37.2913 40.4252 37.075L40.3647 37.0508L44.6237 32.7917Z" fill="#EDEFF1"/>
<path d="M40.8741 37.0508H39.856C37.7849 37.0508 36.106 35.3719 36.106 33.3008V27.1477H44.6241V33.3008C44.6241 35.3719 42.9452 37.0508 40.8741 37.0508Z" fill="#FFD3B3"/>
<path d="M36.106 29.4344C37.4081 30.0158 38.8488 30.3421 40.365 30.3421C41.8813 30.3421 43.3219 30.016 44.6241 29.4344V27.1477H36.106V29.4344Z" fill="#FCB98B"/>
<path d="M49.4154 19.8882C49.4154 24.8778 45.3544 28.9226 40.3649 28.9226C35.3754 28.9226 31.3145 24.8778 31.3145 19.8882V10.999H49.4154V19.8882Z" fill="#FFD3B3"/>
<path d="M38.8018 24.6548H41.9268L41.9102 24.7212C41.7363 25.4168 41.1113 25.9048 40.3944 25.9048H40.3344C39.6174 25.9048 38.9924 25.4168 38.8186 24.7212L38.8018 24.6548Z" fill="#EDEFF1"/>
<path d="M41.2522 22.2929H39.1455L39.3655 19.6555L40.2996 19.7335L40.1646 21.3554H41.2522V22.2929Z" fill="#FCB98B"/>
<path d="M38.7675 15.2581C38.7675 15.2581 35.9873 14.1046 33.6211 16.1454C33.6211 16.1454 36.3717 15.4356 38.235 16.3229L38.7675 15.2581Z" fill="#6E83B7"/>
<path d="M36.8151 18.9846C37.3051 18.9846 37.7024 18.5874 37.7024 18.0973C37.7024 17.6072 37.3051 17.21 36.8151 17.21C36.325 17.21 35.9277 17.6072 35.9277 18.0973C35.9277 18.5874 36.325 18.9846 36.8151 18.9846Z" fill="#6E83B7"/>
<path d="M41.7168 15.9536C41.7168 15.9536 44.1285 14.1525 46.9235 15.5497C46.9235 15.5497 44.0827 15.5372 42.4945 16.855L41.7168 15.9536Z" fill="#6E83B7"/>
<path d="M43.0847 18.3034L42.6143 17.8918C42.6593 17.8402 43.7354 16.6298 45.2124 16.8315L45.1279 17.4507C43.9871 17.2951 43.0936 18.2932 43.0847 18.3034V18.3034Z" fill="#FCB98B"/>
<path d="M44.3224 18.601C43.6273 18.3019 42.9021 18.4052 42.8946 18.4064L42.8027 17.7882C42.839 17.7827 43.7126 17.6585 44.5693 18.0267L44.3224 18.601Z" fill="#FCB98B"/>
<path d="M49.415 13.8726H50.0813C51.1436 13.8726 51.9679 14.7996 51.8438 15.8544L51.5952 17.9674C51.4652 19.0729 50.5282 19.9062 49.415 19.9062V13.8726Z" fill="#FFD3B3"/>
<path d="M31.3142 13.8726H30.6479C29.5857 13.8726 28.7614 14.7996 28.8854 15.8544L29.134 17.9674C29.264 19.0729 30.201 19.9062 31.3142 19.9062V13.8726Z" fill="#FFD3B3"/>
<path d="M43.2034 40.0557L41.6065 42.0198H38.944L37.519 40.062L38.9487 38.1229C39.294 37.6542 39.7628 37.2917 40.3034 37.0745L40.3643 37.051L40.4253 37.0745C40.9659 37.2917 41.4346 37.6542 41.78 38.1229L43.2034 40.0557Z" fill="#80D6FB"/>
<path d="M40.417 41.4859H40.2164C39.4169 41.4859 38.6656 41.1036 38.1951 40.4572L37.7145 39.7969L37.519 40.062L38.944 42.0199H41.6065L43.2034 40.0558L42.9972 39.7756L42.357 40.5631C41.882 41.147 41.1695 41.4859 40.417 41.4859V41.4859Z" fill="#46BEE8"/>
<path d="M48.3335 10.999V14.2473C48.3335 14.774 48.5819 15.2735 48.9866 15.6106L49.4272 15.9657V5.73853H42.8491V10.999H48.3335Z" fill="#466089"/>
<path d="M46.7106 10.9988H32.3955V14.2471C32.3955 14.7738 32.1471 15.2734 31.7424 15.6106L31.3018 15.9657V13.8735H30.6768V8.09229V6.68604C30.6768 5.13275 31.936 3.87354 33.4893 3.87354H33.6208C33.6208 2.32025 34.88 1.06104 36.4333 1.06104H49.8356C50.6986 1.06104 51.3981 1.76057 51.3981 2.62354V6.31135C51.3981 8.90025 49.2995 10.9988 46.7106 10.9988Z" fill="#6E83B7"/>
<path d="M5.96875 12.238L6.85239 11.3544L9.71022 14.2122L8.82658 15.0959L5.96875 12.238Z" fill="#6E83B7"/>
<path d="M6.92676 14.0298H5.67676V11.061H8.64551V12.311H6.92676V14.0298Z" fill="#6E83B7"/>
<path d="M5.96777 24.8804L8.8256 22.0225L9.70935 22.9063L6.85152 25.7641L5.96777 24.8804Z" fill="#6E83B7"/>
<path d="M8.64551 26.061H5.67676V23.0923H6.92676V24.811H8.64551V26.061Z" fill="#6E83B7"/>
<path d="M22.8872 14.2126L25.745 11.3548L26.6287 12.2385L23.7708 15.0963L22.8872 14.2126Z" fill="#6E83B7"/>
<path d="M26.9268 14.0298H25.6768V12.311H23.958V11.061H26.9268V14.0298Z" fill="#6E83B7"/>
<path d="M22.8867 22.9097L23.7705 22.0259L26.6283 24.8837L25.7445 25.7675L22.8867 22.9097Z" fill="#6E83B7"/>
<path d="M26.9268 26.061H23.958V24.811H25.6768V23.0923H26.9268V26.061Z" fill="#6E83B7"/>
</svg>
