<svg width="25" height="25" viewBox="0 0 25 25" fill="none" xmlns="http://www.w3.org/2000/svg">
<g clip-path="url(#clip0)">
<path d="M24.4234 6.30707C23.3184 5.20201 21.5204 5.20206 20.4154 6.30707L20.1264 6.59608C20.0737 6.53609 20.0197 6.477 19.9627 6.42006L19.0785 5.53587C19.0215 5.47889 18.9624 5.42485 18.9025 5.37213L19.1915 5.08312C20.2965 3.97811 20.2965 2.18017 19.1915 1.07516L19.1148 0.998535L18.1207 1.99266L18.1973 2.06929C18.7542 2.62613 18.7542 3.53215 18.1973 4.08899L17.6376 4.64878C17.2746 4.52998 16.8916 4.46728 16.4987 4.46728C15.5241 4.46728 14.6079 4.84678 13.9188 5.53587C13.3213 6.13344 12.9757 6.88851 12.8802 7.66866L11.3645 6.15293C10.3225 5.11086 8.93699 4.53701 7.4633 4.53701C5.98962 4.53701 4.60417 5.11086 3.5621 6.15293L2.07445 7.64059L6.4136 11.9797L4.08745 14.3058C3.02724 15.366 2.32943 16.7069 2.06948 18.1835C1.83849 19.4957 1.96928 20.825 2.44631 22.0581L0.5 24.0044L1.49413 24.9985L3.44072 23.0519C4.2772 23.3755 5.15768 23.5403 6.04735 23.5403C6.46913 23.5403 6.89306 23.5033 7.31503 23.4291C8.79167 23.1691 10.1325 22.4713 11.1927 21.411L13.5189 19.0849L17.858 23.424L19.3456 21.9363C20.3877 20.8943 20.9615 19.5088 20.9615 18.0351C20.9615 16.5615 20.3876 15.176 19.3456 14.1339L17.8316 12.6199C18.6361 12.5218 19.3806 12.1618 19.9627 11.5796C20.6518 10.8905 21.0313 9.97433 21.0313 8.99979C21.0313 8.60688 20.9686 8.22381 20.8498 7.86089L21.4095 7.3011C21.9663 6.74426 22.8724 6.74422 23.4293 7.3011L23.5059 7.37773L24.5 6.3836L24.4234 6.30707ZM4.55623 7.14706C5.33272 6.37057 6.36518 5.94293 7.4633 5.94293C8.56142 5.94293 9.59389 6.37057 10.3704 7.14706L13.8638 10.6405L12.5895 11.9148C12.0215 12.4828 11.2664 12.7955 10.4632 12.7955C9.66001 12.7955 8.90489 12.4828 8.3369 11.9148L4.0627 7.64059L4.55623 7.14706ZM10.4633 14.2015C10.7818 14.2015 11.0951 14.1677 11.3993 14.1023C11.1011 15.4909 11.4767 16.9956 12.5264 18.0892L11.8425 18.7731L6.72548 13.656L7.40847 12.973C8.23408 13.7659 9.31514 14.2015 10.4633 14.2015ZM3.81184 21.6867C3.32347 20.5075 3.24633 19.2221 3.54434 18.025L7.47352 21.9542C6.27652 22.2522 4.99108 22.175 3.81184 21.6867ZM8.90072 21.393L4.10549 16.5979C4.36512 16.1288 4.69078 15.6907 5.08162 15.2999L5.73139 14.6501L10.8484 19.7672L10.1986 20.417C9.80782 20.8078 9.36974 21.1335 8.90072 21.393ZM19.5557 18.0352C19.5557 19.1334 19.128 20.1658 18.3515 20.9423L17.858 21.4358L13.5838 17.1616C12.4113 15.9891 12.4113 14.0814 13.5838 12.909L14.858 11.6347L18.3515 15.1282C19.128 15.9047 19.5557 16.9371 19.5557 18.0352ZM14.9125 9.70092C14.0387 8.82653 14.0388 7.4042 14.913 6.53C15.3365 6.10644 15.8997 5.8732 16.4987 5.8732C17.0976 5.8732 17.6608 6.10649 18.0844 6.53L18.9685 7.41419C19.8429 8.28853 19.8429 9.71123 18.9685 10.5856C18.545 11.0091 17.9819 11.2424 17.3828 11.2424C16.7841 11.2424 16.2211 11.0093 15.7977 10.586L14.9125 9.70092Z" fill="#CA9329"/>
</g>
<defs>
<clipPath id="clip0">
<rect width="24" height="24" fill="white" transform="translate(0.5 0.998535)"/>
</clipPath>
</defs>
</svg>
