<svg width="64" height="65" viewBox="0 0 64 65" fill="none" xmlns="http://www.w3.org/2000/svg">
<path d="M32 64.7681C49.6731 64.7681 64 50.4412 64 32.7681C64 15.095 49.6731 0.768066 32 0.768066C14.3269 0.768066 0 15.095 0 32.7681C0 50.4412 14.3269 64.7681 32 64.7681Z" fill="#FF4A4A"/>
<path d="M64 32.7681C64 30.8392 63.8293 28.9503 63.5023 27.1154L46.7467 10.3598L26.3434 11.0827L22.9364 7.5918L13.5412 51.5633L26.2264 64.2486C28.0992 64.5898 30.0288 64.7681 32.0001 64.7681C49.6732 64.7681 64 50.4412 64 32.7681V32.7681Z" fill="#D01273"/>
<path d="M17.8784 14.5978H51.0839V55.8013H17.8784V14.5978Z" fill="#D8F1FB"/>
<path d="M30.1439 14.5981H51.0839V55.8018H30.1439V14.5981Z" fill="#BCEAF9"/>
<path d="M13.5412 10.3598H46.7467V51.5633H13.5412V10.3598Z" fill="white"/>
<path d="M30.1439 10.3593H46.7464V51.5631H30.1439V10.3593Z" fill="#ECF9FB"/>
<path d="M18.7713 22.8395H30.144V26.5895H18.7713V22.8395Z" fill="#0A617D"/>
<path d="M18.7713 30.9902H41.5169V34.7403H18.7713V30.9902Z" fill="#0A617D"/>
<path d="M18.7713 39.1411H41.5169V42.8911H18.7713V39.1411Z" fill="#0A617D"/>
<path d="M19.4015 16.0523V8.90918C19.4015 7.79743 20.3028 6.8963 21.4144 6.8963C22.5261 6.8963 23.4273 7.79755 23.4273 8.90918V16.0523C23.4273 17.1641 22.526 18.0652 21.4144 18.0652C20.3028 18.0652 19.4015 17.1639 19.4015 16.0523Z" fill="#FFDE1F"/>
<path d="M34.3027 17.1184H41.5169V26.5894H34.3027V17.1184Z" fill="#1ED3C6"/>
<path d="M30.1439 30.9906H41.5164V34.7406H30.1439V30.9906Z" fill="#08475E"/>
<path d="M30.1439 39.1405H41.5164V42.8905H30.1439V39.1405Z" fill="#08475E"/>
</svg>
