<svg width="32" height="33" viewBox="0 0 32 33" fill="none" xmlns="http://www.w3.org/2000/svg">
<rect x="2" y="2.99854" width="28" height="28" rx="6" fill="url(#paint0_radial)"/>
<rect x="2" y="2.99854" width="28" height="28" rx="6" fill="url(#paint1_radial)"/>
<rect x="2" y="2.99854" width="28" height="28" rx="6" fill="url(#paint2_radial)"/>
<path d="M23 11.4985C23 12.327 22.3284 12.9985 21.5 12.9985C20.6716 12.9985 20 12.327 20 11.4985C20 10.6701 20.6716 9.99854 21.5 9.99854C22.3284 9.99854 23 10.6701 23 11.4985Z" fill="white"/>
<path fill-rule="evenodd" clip-rule="evenodd" d="M16 21.9985C18.7614 21.9985 21 19.76 21 16.9985C21 14.2371 18.7614 11.9985 16 11.9985C13.2386 11.9985 11 14.2371 11 16.9985C11 19.76 13.2386 21.9985 16 21.9985ZM16 19.9985C17.6569 19.9985 19 18.6554 19 16.9985C19 15.3417 17.6569 13.9985 16 13.9985C14.3431 13.9985 13 15.3417 13 16.9985C13 18.6554 14.3431 19.9985 16 19.9985Z" fill="white"/>
<path fill-rule="evenodd" clip-rule="evenodd" d="M6 16.5985C6 13.2382 6 11.5581 6.65396 10.2746C7.2292 9.14562 8.14708 8.22774 9.27606 7.6525C10.5595 6.99854 12.2397 6.99854 15.6 6.99854H16.4C19.7603 6.99854 21.4405 6.99854 22.7239 7.6525C23.8529 8.22774 24.7708 9.14562 25.346 10.2746C26 11.5581 26 13.2382 26 16.5985V17.3985C26 20.7589 26 22.439 25.346 23.7225C24.7708 24.8514 23.8529 25.7693 22.7239 26.3446C21.4405 26.9985 19.7603 26.9985 16.4 26.9985H15.6C12.2397 26.9985 10.5595 26.9985 9.27606 26.3446C8.14708 25.7693 7.2292 24.8514 6.65396 23.7225C6 22.439 6 20.7589 6 17.3985V16.5985ZM15.6 8.99854H16.4C18.1132 8.99854 19.2777 9.00009 20.1779 9.07364C21.0548 9.14528 21.5032 9.27513 21.816 9.43451C22.5686 9.818 23.1805 10.4299 23.564 11.1826C23.7234 11.4954 23.8533 11.9438 23.9249 12.8206C23.9984 13.7208 24 14.8854 24 16.5985V17.3985C24 19.1117 23.9984 20.2763 23.9249 21.1765C23.8533 22.0533 23.7234 22.5017 23.564 22.8145C23.1805 23.5671 22.5686 24.1791 21.816 24.5626C21.5032 24.7219 21.0548 24.8518 20.1779 24.9234C19.2777 24.997 18.1132 24.9985 16.4 24.9985H15.6C13.8868 24.9985 12.7223 24.997 11.8221 24.9234C10.9452 24.8518 10.4968 24.7219 10.184 24.5626C9.43139 24.1791 8.81947 23.5671 8.43597 22.8145C8.27659 22.5017 8.14674 22.0533 8.0751 21.1765C8.00156 20.2763 8 19.1117 8 17.3985V16.5985C8 14.8854 8.00156 13.7208 8.0751 12.8206C8.14674 11.9438 8.27659 11.4954 8.43597 11.1826C8.81947 10.4299 9.43139 9.818 10.184 9.43451C10.4968 9.27513 10.9452 9.14528 11.8221 9.07364C12.7223 9.00009 13.8868 8.99854 15.6 8.99854Z" fill="white"/>
<defs>
<radialGradient id="paint0_radial" cx="0" cy="0" r="1" gradientUnits="userSpaceOnUse" gradientTransform="translate(12 23.9985) rotate(-55.3758) scale(25.5196)">
<stop stop-color="#B13589"/>
<stop offset="0.79309" stop-color="#C62F94"/>
<stop offset="1" stop-color="#8A3AC8"/>
</radialGradient>
<radialGradient id="paint1_radial" cx="0" cy="0" r="1" gradientUnits="userSpaceOnUse" gradientTransform="translate(11 31.9985) rotate(-65.1363) scale(22.5942)">
<stop stop-color="#E0E8B7"/>
<stop offset="0.444662" stop-color="#FB8A2E"/>
<stop offset="0.71474" stop-color="#E2425C"/>
<stop offset="1" stop-color="#E2425C" stop-opacity="0"/>
</radialGradient>
<radialGradient id="paint2_radial" cx="0" cy="0" r="1" gradientUnits="userSpaceOnUse" gradientTransform="translate(0.500002 3.99853) rotate(-8.1301) scale(38.8909 8.31836)">
<stop offset="0.156701" stop-color="#406ADC"/>
<stop offset="0.467799" stop-color="#6A45BE"/>
<stop offset="1" stop-color="#6A45BE" stop-opacity="0"/>
</radialGradient>
</defs>
</svg>
