<svg width="81" height="81" viewBox="0 0 81 81" fill="none" xmlns="http://www.w3.org/2000/svg">
<path d="M70.6665 42.7651H14.4165C12.3453 42.7651 10.6665 41.0864 10.6665 39.0151H74.4165C74.4165 41.0864 72.7378 42.7651 70.6665 42.7651Z" fill="#E8E5DF"/>
<path d="M19.4165 40.2651H34.4165C37.8678 40.2651 40.6665 37.4664 40.6665 34.0151V30.1814C40.6665 24.0151 35.7228 15.2651 34.2503 15.2651H19.5828C18.1103 15.2651 13.1665 24.0151 13.1665 30.1814V34.0151C13.1665 37.4664 15.9653 40.2651 19.4165 40.2651Z" fill="#FEBE07"/>
<path d="M36.629 5.61637L34.0165 6.92262C33.6203 7.12137 33.139 7.00762 32.8728 6.65262L31.2165 4.44387C30.8815 3.99762 30.229 3.95137 29.8353 4.34512L27.6628 6.51762C27.2678 6.91262 26.6165 6.86637 26.2815 6.41887L24.8003 4.44387C24.4653 3.99762 23.8128 3.95137 23.419 4.34512L20.8815 6.88262C20.6465 7.11762 20.3015 7.20762 19.9815 7.11637L16.1878 6.03262C15.4065 5.81012 14.7415 6.64012 15.1315 7.35387L19.4165 15.2651H34.4165L37.8853 6.78887C38.2128 6.00512 37.389 5.23762 36.629 5.61637V5.61637Z" fill="#FEBE07"/>
<path d="M34.4167 40.2651C37.8679 40.2651 40.6667 37.4664 40.6667 34.0151V30.1814C40.6667 24.0151 35.7229 15.2651 34.2504 15.2651H19.5829C18.7479 15.2651 27.5329 15.8039 31.9167 22.7651C35.2629 28.0789 34.4167 40.2651 34.4167 40.2651Z" fill="#E3A800"/>
<path d="M36.6292 5.61631L34.8617 6.50006C31.428 9.94506 27.113 12.4026 22.3692 13.5888L18.9692 14.4388L19.4167 15.2651H34.4167L37.8855 6.78881C38.213 6.00506 37.3892 5.23756 36.6292 5.61631V5.61631Z" fill="#E3A800"/>
<path d="M36.9165 37.7651H21.9165C18.4653 37.7651 15.6665 34.9664 15.6665 31.5151V27.6814C15.6665 23.5664 17.8665 18.3126 19.769 15.2651H19.5828C18.1103 15.2651 13.1665 24.0151 13.1665 30.1814V34.0151C13.1665 37.4664 15.9653 40.2651 19.4165 40.2651H34.4165C36.7878 40.2651 38.8253 38.9289 39.8853 36.9839C38.9978 37.4664 37.9965 37.7651 36.9165 37.7651Z" fill="#E3A800"/>
<path d="M44.4165 5.26514H56.9165V40.2651H44.4165V5.26514Z" fill="#CBE6FE"/>
<path d="M56.9165 20.2651L51.9165 25.2651L46.9165 30.2651H49.4165V40.2651H56.9165V20.2651Z" fill="#A9C6EB"/>
<path d="M37.2915 20.2651H33.1665V40.2651H44.4165V20.2651H37.2915Z" fill="#CBE6FE"/>
<path d="M59.4165 34.0151H64.4165V40.2651H59.4165V34.0151Z" fill="#A9C6EB"/>
<path d="M72.8003 37.7651C71.4928 37.7651 70.2965 38.5039 69.7115 39.6739L69.4165 40.2651L65.6665 47.7651L56.9165 51.5151C56.9165 48.7539 54.6778 46.5151 51.9165 46.5151H33.919C26.9253 46.5151 20.1065 48.7001 14.4165 52.7651V71.5151H43.924C49.964 71.5151 55.8815 69.8176 61.0028 66.6164C68.7465 61.7776 74.0728 53.8814 75.659 44.8901L76.2015 41.8176C76.574 39.7039 74.9478 37.7651 72.8003 37.7651V37.7651Z" fill="#FFE5CF"/>
<path d="M69.4165 30.2651H54.4165V40.2651H59.4165V34.0151H64.4165V40.2651H69.4165V30.2651Z" fill="#CBE6FE"/>
<path d="M71.9165 30.2651L61.9165 20.2651L56.9165 25.2651L51.9165 30.2651H71.9165Z" fill="#E3A800"/>
<path d="M40.6665 20.2651H44.4165V40.2651H40.6665V20.2651Z" fill="#A9C6EB"/>
<path d="M17.0153 51.1013C16.129 51.6188 15.2565 52.1651 14.4165 52.7651V71.5151H43.924L36.8303 70.8588C26.2478 69.8788 17.999 61.4888 17.0153 51.1013V51.1013Z" fill="#F5DCC7"/>
<path d="M29.4165 25.2651V24.0151C29.4165 23.3251 28.8578 22.7651 28.1665 22.7651H26.9165V21.5151H24.4165V22.7651H23.1665C22.4753 22.7651 21.9165 23.3251 21.9165 24.0151V27.7651C21.9165 28.4551 22.4753 29.0151 23.1665 29.0151H26.9165V30.2651H21.9165V31.5151C21.9165 32.2051 22.4753 32.7651 23.1665 32.7651H24.4165V34.0151H26.9165V32.7651H28.1665C28.8578 32.7651 29.4165 32.2051 29.4165 31.5151V27.7651C29.4165 27.0751 28.8578 26.5151 28.1665 26.5151H24.4165V25.2651H29.4165Z" fill="#FEFEFE"/>
<path d="M51.9165 59.0151H31.9165V56.5151H51.9165C53.984 56.5151 56.9165 53.5826 56.9165 51.5151L58.1665 52.7651C58.1665 56.2114 55.3628 59.0151 51.9165 59.0151Z" fill="#F5DCC7"/>
<path d="M48.1665 9.01514H49.4165V11.5151H48.1665V9.01514Z" fill="#2B67B3"/>
<path d="M51.9165 9.01514H53.1665V11.5151H51.9165V9.01514Z" fill="#2B67B3"/>
<path d="M48.1665 14.0151H49.4165V16.5151H48.1665V14.0151Z" fill="#2B67B3"/>
<path d="M51.9165 14.0151H53.1665V16.5151H51.9165V14.0151Z" fill="#2B67B3"/>
<path d="M48.1665 19.0151H49.4165V21.5151H48.1665V19.0151Z" fill="#2B67B3"/>
<path d="M51.9165 19.0151H53.1665V21.5151H51.9165V19.0151Z" fill="#2B67B3"/>
<path d="M36.9165 24.0151H38.1665V26.5151H36.9165V24.0151Z" fill="#2B67B3"/>
<path d="M40.6665 24.0151H41.9165V26.5151H40.6665V24.0151Z" fill="#2B67B3"/>
<path d="M36.9165 29.0151H38.1665V31.5151H36.9165V29.0151Z" fill="#2B67B3"/>
<path d="M40.6665 29.0151H41.9165V31.5151H40.6665V29.0151Z" fill="#2B67B3"/>
<path d="M36.9165 34.0151H38.1665V36.5151H36.9165V34.0151Z" fill="#2B67B3"/>
<path d="M40.6665 34.0151H41.9165V36.5151H40.6665V34.0151Z" fill="#2B67B3"/>
<path d="M48.1665 24.0151H49.4165V26.5151H48.1665V24.0151Z" fill="#2B67B3"/>
<path d="M51.9165 24.0151H53.1665V26.5151H51.9165V24.0151Z" fill="#2B67B3"/>
<path d="M66.9165 5.26514H69.4165V7.76514H66.9165V5.26514Z" fill="#FEBE07"/>
<path d="M69.4165 2.76514H71.9165V5.26514H69.4165V2.76514Z" fill="#FEBE07"/>
<path d="M71.9165 5.26514H74.4165V7.76514H71.9165V5.26514Z" fill="#FEBE07"/>
<path d="M69.4165 7.76514H71.9165V10.2651H69.4165V7.76514Z" fill="#FEBE07"/>
<path d="M75.6665 11.5151H78.1665V14.0151H75.6665V11.5151Z" fill="#FEBE07"/>
<path d="M66.9165 15.2651H69.4165V17.7651H66.9165V15.2651Z" fill="#FEBE07"/>
<path d="M3.1665 14.0151H5.6665V16.5151H3.1665V14.0151Z" fill="#FEBE07"/>
<path d="M5.6665 11.5151H8.1665V14.0151H5.6665V11.5151Z" fill="#FEBE07"/>
<path d="M8.1665 14.0151H10.6665V16.5151H8.1665V14.0151Z" fill="#FEBE07"/>
<path d="M5.6665 16.5151H8.1665V19.0151H5.6665V16.5151Z" fill="#FEBE07"/>
<path d="M3.1665 24.0151H5.6665V26.5151H3.1665V24.0151Z" fill="#FEBE07"/>
<path d="M8.1665 2.76514H10.6665V5.26514H8.1665V2.76514Z" fill="#FEBE07"/>
<path d="M13.1665 46.5151H5.6665C4.9765 46.5151 4.4165 47.0751 4.4165 47.7651V75.2651C4.4165 75.9551 4.9765 76.5151 5.6665 76.5151H13.1665C13.8565 76.5151 14.4165 75.9551 14.4165 75.2651V47.7651C14.4165 47.0751 13.8565 46.5151 13.1665 46.5151Z" fill="#2B67B3"/>
<path d="M9.4165 55.2651C8.7265 55.2651 8.1665 54.7051 8.1665 54.0151V52.7651C8.1665 52.0751 8.7265 51.5151 9.4165 51.5151C10.1065 51.5151 10.6665 52.0751 10.6665 52.7651V54.0151C10.6665 54.7051 10.1065 55.2651 9.4165 55.2651Z" fill="#FEFEFE"/>
</svg>
