<svg width="32" height="33" viewBox="0 0 32 33" fill="none" xmlns="http://www.w3.org/2000/svg">
<path d="M2.24451 10.9396C2.37304 8.96087 3.96395 7.4101 5.94447 7.31198C8.81239 7.1699 12.9115 6.99854 16 6.99854C19.0885 6.99854 23.1876 7.1699 26.0555 7.31198C28.0361 7.4101 29.627 8.96087 29.7555 10.9396C29.8786 12.8355 30 15.1682 30 16.9985C30 18.8289 29.8786 21.1616 29.7555 23.0574C29.627 25.0362 28.0361 26.587 26.0555 26.6851C23.1876 26.8272 19.0885 26.9985 16 26.9985C12.9115 26.9985 8.81239 26.8272 5.94447 26.6851C3.96395 26.587 2.37304 25.0362 2.24451 23.0574C2.12136 21.1616 2 18.8289 2 16.9985C2 15.1682 2.12136 12.8355 2.24451 10.9396Z" fill="#FC0D1B"/>
<path d="M13 12.9985V20.9985L21 16.9985L13 12.9985Z" fill="white"/>
</svg>
