<svg width="80" height="81" viewBox="0 0 80 81" fill="none" xmlns="http://www.w3.org/2000/svg">
<g clip-path="url(#clip0)">
<path d="M71.0342 47.1618C71.0355 64.9069 57.0445 79.4968 39.3149 80.2388C21.5854 80.9808 6.42423 67.6109 4.94289 49.9277C3.46154 32.2445 16.187 16.5386 33.7929 14.3204C36.5404 13.971 39.3212 13.971 42.0687 14.3204C48.4296 15.1153 54.421 17.7468 59.3101 21.8928C60.7147 23.0767 62.0159 24.3779 63.1998 25.7825C68.267 31.7526 71.0442 39.3312 71.0342 47.1618Z" fill="#3B97D3"/>
<path d="M64.1376 47.1618C64.1397 60.3177 54.3878 71.4362 41.3439 73.1497C28.3 74.8631 16.0074 66.6403 12.6118 53.9302C9.21614 41.2201 15.77 27.9622 27.9305 22.9421C40.0909 17.922 54.0886 22.6956 60.6479 34.0997C62.9326 38.074 64.1357 42.5776 64.1376 47.1618Z" fill="#ECF0F1"/>
<path d="M64.1378 47.1616C64.1369 56.5155 59.1506 65.1597 51.054 69.8437C42.9573 74.5276 32.978 74.541 24.8688 69.8788C18.9695 59.6118 20.6877 46.6644 29.0607 38.2914C37.4337 29.9184 50.3811 28.2002 60.6481 34.0995C62.9413 38.0703 64.1451 42.5762 64.1378 47.1616Z" fill="white"/>
<path d="M42.0688 7.16162V14.3202C39.3213 13.9708 36.5405 13.9708 33.793 14.3202V7.16162H42.0688Z" fill="#2980BA"/>
<path d="M47.5857 3.71341C47.5887 4.62885 47.2263 5.50765 46.579 6.15496C45.9317 6.80228 45.0529 7.16463 44.1374 7.16169H31.7237C29.8192 7.16169 28.2754 5.61784 28.2754 3.71341C28.2754 1.80898 29.8192 0.265137 31.7237 0.265137H44.1374C46.0419 0.265137 47.5857 1.80898 47.5857 3.71341Z" fill="#3B97D3"/>
<path d="M68.2756 20.7066L63.1997 25.7824C62.0159 24.3779 60.7146 23.0766 59.3101 21.8928L64.3859 16.8169L68.2756 20.7066Z" fill="#7F8284"/>
<path d="M74.3588 22.8996C73.8456 23.4202 73.145 23.7133 72.414 23.7133C71.6829 23.7133 70.9824 23.4202 70.4691 22.8996L68.276 20.7065L64.3864 16.8168L62.1933 14.6237C61.1192 13.5496 61.1192 11.8081 62.1933 10.734C63.2674 9.65994 65.0088 9.65994 66.0829 10.734L74.3588 19.0099C74.8815 19.522 75.176 20.223 75.176 20.9547C75.176 21.6865 74.8815 22.3874 74.3588 22.8996Z" fill="#CC4B4C"/>
<path d="M37.9312 26.4817C48.763 26.4884 57.7589 34.8427 58.5657 45.6445C58.5983 46.0321 58.4681 46.4157 58.2065 46.7035C57.9449 46.9914 57.5753 47.1573 57.1864 47.1617H37.9312V26.4817Z" fill="#FF5364"/>
<path d="M34.4414 44.9272L35.8483 26.5823C35.9278 25.4908 36.8366 24.6458 37.9311 24.6458C39.0255 24.6458 39.9343 25.4908 40.0138 26.5823L41.4207 44.9272H34.4414Z" fill="#BDC3C7"/>
<path d="M37.9304 74.7478C22.695 74.7478 10.3442 62.3971 10.3442 47.1616C10.3442 31.9262 22.695 19.5754 37.9304 19.5754C53.1659 19.5754 65.5167 31.9262 65.5167 47.1616C65.4992 62.3898 53.1586 74.7304 37.9304 74.7478ZM37.9304 22.3341C24.2185 22.3341 13.1029 33.4497 13.1029 47.1616C13.1029 60.8735 24.2185 71.9892 37.9304 71.9892C51.6423 71.9892 62.758 60.8735 62.758 47.1616C62.7421 33.4564 51.6357 22.35 37.9304 22.3341Z" fill="#BDC3C7"/>
<path d="M42.0688 47.1618C42.0688 49.4471 40.2162 51.2997 37.9309 51.2997C35.6456 51.2997 33.793 49.4471 33.793 47.1618C33.7897 46.3744 34.0149 45.603 34.4413 44.9411V44.9273C35.2052 43.7408 36.5197 43.0237 37.9309 43.0237C39.3421 43.0237 40.6566 43.7408 41.4206 44.9273C41.841 45.597 42.0656 46.3711 42.0688 47.1618Z" fill="#7F8284"/>
</g>
<defs>
<clipPath id="clip0">
<rect width="80" height="80" fill="white" transform="translate(0 0.265137)"/>
</clipPath>
</defs>
</svg>
