<svg width="81" height="81" viewBox="0 0 81 81" fill="none" xmlns="http://www.w3.org/2000/svg">
<g clip-path="url(#clip0)">
<path d="M74.5844 12.7355L60.7125 1.04574C59.3039 -0.138783 57.2016 0.0462158 56.0171 1.45495C54.8326 2.86369 55.0176 4.96586 56.4263 6.15039L63.3037 11.9953H30.3579C19.915 12.0069 11.4517 20.4703 11.4399 30.9133V36.8947C11.4399 38.7339 12.9323 40.2262 14.7715 40.2262C16.6107 40.2262 18.103 38.7339 18.103 36.8947V30.8549C18.1147 24.0904 23.5933 18.6117 30.3579 18.6H63.3233L56.4458 24.4449C55.0372 25.6295 54.8521 27.7318 56.0366 29.1404C57.2211 30.5489 59.3235 30.7341 60.732 29.5496L74.604 17.8597C76.0125 16.677 76.1977 14.5749 75.0151 13.1663C74.8904 13.0181 74.7521 12.8799 74.604 12.7552L74.5844 12.7355Z" fill="#4899D2"/>
<path d="M65.798 40.2456C63.9588 40.2456 62.4664 41.7379 62.4664 43.5771V49.617C62.4547 56.3814 56.9762 61.8602 50.2115 61.8719H17.2462L24.1236 56.0269C25.7348 55.1366 26.3194 53.1104 25.4289 51.499C24.5386 49.8877 22.5124 49.3032 20.901 50.1937C20.5308 50.3982 20.2016 50.671 19.9346 51.0002L6.06265 62.6902C4.65407 63.8728 4.46891 65.975 5.65156 67.3836C5.77625 67.5317 5.91453 67.67 6.06265 67.7946L19.9346 79.4844C21.3432 80.6689 23.4455 80.4839 24.63 79.0752C25.8145 77.6665 25.6295 75.5643 24.2208 74.3798L17.3433 68.5348H50.2112C60.6541 68.5231 69.1176 60.0597 69.1292 49.6168V43.5773C69.1296 41.7361 67.6372 40.2456 65.798 40.2456Z" fill="#293C7D"/>
</g>
<defs>
<clipPath id="clip0">
<rect width="80" height="80" fill="white" transform="translate(0.333496 0.265137)"/>
</clipPath>
</defs>
</svg>
